<svg width="440" height="505" viewBox="380 110 440 505" xmlns="http://www.w3.org/2000/svg" xmlns:xlink="http://www.w3.org/1999/xlink" overflow="hidden"><g><path d="M590.849 137.947C589.717 136.189 590.225 133.846 591.983 132.715L604.713 124.519C606.471 123.387 608.813 123.895 609.945 125.653L808.974 434.795C810.106 436.553 809.598 438.895 807.84 440.027L795.11 448.223C793.352 449.354 791.01 448.847 789.878 447.089Z" stroke="#FFFFFF" stroke-width="2" stroke-miterlimit="8" fill="#FFFFFF" fill-rule="evenodd"/><path d="M589 131C589 124.373 593.925 119 600 119 606.075 119 611 124.373 611 131 611 137.627 606.075 143 600 143 593.925 143 589 137.627 589 131Z" stroke="#FFFFFF" stroke-width="2" stroke-miterlimit="8" fill="#FFFFFF" fill-rule="evenodd"/><path d="M792 445.5C792 439.149 796.925 434 803 434 809.075 434 814 439.149 814 445.5 814 451.851 809.075 457 803 457 796.925 457 792 451.851 792 445.5Z" stroke="#FFFFFF" stroke-width="2" stroke-miterlimit="8" fill="#FFFFFF" fill-rule="evenodd"/><path d="M593.447 141.253C592.315 139.495 592.823 137.152 594.581 136.021L607.311 127.825C609.068 126.693 611.411 127.201 612.542 128.959L811.572 438.101C812.703 439.859 812.196 442.201 810.438 443.333L797.708 451.529C795.95 452.66 793.608 452.153 792.476 450.395Z" stroke="#FFFFFF" stroke-width="2" stroke-miterlimit="8" fill="#FFFFFF" fill-rule="evenodd"/><path d="M590.35 134.509C589.886 132.47 591.162 130.442 593.2 129.978L607.963 126.616C610.001 126.152 612.03 127.428 612.494 129.466L716.334 585.491C716.798 587.53 715.522 589.558 713.483 590.022L698.72 593.384C696.682 593.848 694.654 592.572 694.19 590.534Z" stroke="#FFFFFF" stroke-width="2" stroke-miterlimit="8" fill="#FFFFFF" fill-rule="evenodd"/><path d="M695 590.5C695 584.149 699.925 579 706 579 712.075 579 717 584.149 717 590.5 717 596.851 712.075 602 706 602 699.925 602 695 596.851 695 590.5Z" stroke="#FFFFFF" stroke-width="2" stroke-miterlimit="8" fill="#FFFFFF" fill-rule="evenodd"/><path d="M791.458 440.699C792.615 438.958 794.965 438.486 796.706 439.643L809.313 448.027C811.054 449.185 811.526 451.534 810.369 453.275L717.107 593.517C715.95 595.257 713.6 595.73 711.859 594.573L699.252 586.189C697.511 585.031 697.039 582.681 698.196 580.941Z" stroke="#FFFFFF" stroke-width="2" stroke-miterlimit="8" fill="#FFFFFF" fill-rule="evenodd"/><path d="M0 3.78516C-6.12563e-16 1.69467 1.69468-1.22512e-15 3.78518-1.22512e-15L18.9256 0C21.0161 -6.12559e-16 22.7108 1.69467 22.7108 3.78516L22.7108 304.146C22.7108 306.237 21.0161 307.932 18.9256 307.932L3.78518 307.932C1.69468 307.932 -6.12563e-16 306.237 0 304.146Z" stroke="#FFFFFF" stroke-width="2" stroke-miterlimit="8" fill="#FFFFFF" fill-rule="evenodd" transform="matrix(0.282843 -0.959166 -0.959166 -0.282843 703.115 601.238)"/><path d="M0 3.78491C-8.31501e-16 1.69456 1.69459 0 3.78497 0L18.9258 0C21.0162 0 22.7108 1.69456 22.7108 3.78491L22.7108 414.201C22.7108 416.292 21.0162 417.986 18.9258 417.986L3.78497 417.986C1.69459 417.986 0 416.292 0 414.201Z" stroke="#FFFFFF" stroke-width="2" stroke-miterlimit="8" fill="#FFFFFF" fill-rule="evenodd" transform="matrix(-0.892686 -0.450679 -0.450679 0.892686 609.419 136.333)"/><path d="M401 503.5C401 497.149 405.701 492 411.5 492 417.299 492 422 497.149 422 503.5 422 509.851 417.299 515 411.5 515 405.701 515 401 509.851 401 503.5Z" stroke="#FFFFFF" stroke-width="2" stroke-miterlimit="8" fill="#FFFFFF" fill-rule="evenodd"/></g></svg>